<mxfile host="Electron" agent="Mozilla/5.0 (X11; Linux x86_64) AppleWebKit/537.36 (KHTML, like Gecko) draw.io/26.0.4 Chrome/128.0.6613.186 Electron/32.2.5 Safari/537.36" version="26.0.4">
  <diagram name="Page-1" id="sZkMDtUhSJGaAmeF6T3Y">
    <mxGraphModel dx="844" dy="781" grid="1" gridSize="10" guides="1" tooltips="1" connect="1" arrows="1" fold="1" page="1" pageScale="1" pageWidth="850" pageHeight="1100" math="0" shadow="0">
      <root>
        <mxCell id="0" />
        <mxCell id="1" parent="0" />
        <mxCell id="BoXuv4zLcTpTWYmeshlf-1" value="" style="ellipse;whiteSpace=wrap;html=1;aspect=fixed;" parent="1" vertex="1">
          <mxGeometry x="500" y="250" width="30" height="30" as="geometry" />
        </mxCell>
        <mxCell id="gUrk4oitRmZIMs54-eBy-3" value="" style="ellipse;whiteSpace=wrap;html=1;aspect=fixed;" parent="1" vertex="1">
          <mxGeometry x="170" y="105" width="380" height="380" as="geometry" />
        </mxCell>
        <mxCell id="gUrk4oitRmZIMs54-eBy-2" value="" style="ellipse;whiteSpace=wrap;html=1;aspect=fixed;" parent="1" vertex="1">
          <mxGeometry x="225" y="160" width="270" height="270" as="geometry" />
        </mxCell>
        <mxCell id="gUrk4oitRmZIMs54-eBy-1" value="" style="ellipse;whiteSpace=wrap;html=1;aspect=fixed;" parent="1" vertex="1">
          <mxGeometry x="295" y="225" width="140" height="140" as="geometry" />
        </mxCell>
        <mxCell id="gUrk4oitRmZIMs54-eBy-4" value="directories" style="text;html=1;align=center;verticalAlign=middle;whiteSpace=wrap;rounded=0;fontSize=16;" parent="1" vertex="1">
          <mxGeometry x="500" y="530" width="80" height="30" as="geometry" />
        </mxCell>
        <mxCell id="gUrk4oitRmZIMs54-eBy-5" value="" style="endArrow=classic;html=1;rounded=0;" parent="1" source="gUrk4oitRmZIMs54-eBy-1" edge="1">
          <mxGeometry width="50" height="50" relative="1" as="geometry">
            <mxPoint x="260" y="550" as="sourcePoint" />
            <mxPoint x="220" y="520" as="targetPoint" />
          </mxGeometry>
        </mxCell>
        <mxCell id="gUrk4oitRmZIMs54-eBy-6" value="LEVEL 1" style="text;html=1;align=center;verticalAlign=middle;whiteSpace=wrap;rounded=0;fontSize=16;" parent="1" vertex="1">
          <mxGeometry x="190" y="550" width="110" height="30" as="geometry" />
        </mxCell>
        <mxCell id="gUrk4oitRmZIMs54-eBy-7" value="" style="ellipse;whiteSpace=wrap;html=1;aspect=fixed;" parent="1" vertex="1">
          <mxGeometry x="320" y="250" width="30" height="30" as="geometry" />
        </mxCell>
        <mxCell id="gUrk4oitRmZIMs54-eBy-8" value="" style="ellipse;whiteSpace=wrap;html=1;aspect=fixed;" parent="1" vertex="1">
          <mxGeometry x="350" y="290" width="30" height="30" as="geometry" />
        </mxCell>
        <mxCell id="gUrk4oitRmZIMs54-eBy-9" value="" style="endArrow=classic;html=1;rounded=0;exitX=0.5;exitY=1;exitDx=0;exitDy=0;" parent="1" source="gUrk4oitRmZIMs54-eBy-8" edge="1">
          <mxGeometry width="50" height="50" relative="1" as="geometry">
            <mxPoint x="620" y="500" as="sourcePoint" />
            <mxPoint x="500" y="520" as="targetPoint" />
          </mxGeometry>
        </mxCell>
        <mxCell id="gUrk4oitRmZIMs54-eBy-10" value="" style="ellipse;whiteSpace=wrap;html=1;aspect=fixed;" parent="1" vertex="1">
          <mxGeometry x="280" y="200" width="30" height="30" as="geometry" />
        </mxCell>
        <mxCell id="gUrk4oitRmZIMs54-eBy-11" value="" style="ellipse;whiteSpace=wrap;html=1;aspect=fixed;" parent="1" vertex="1">
          <mxGeometry x="345" y="180" width="30" height="30" as="geometry" />
        </mxCell>
        <mxCell id="gUrk4oitRmZIMs54-eBy-12" value="" style="ellipse;whiteSpace=wrap;html=1;aspect=fixed;" parent="1" vertex="1">
          <mxGeometry x="410" y="195" width="30" height="30" as="geometry" />
        </mxCell>
        <mxCell id="gUrk4oitRmZIMs54-eBy-13" value="" style="ellipse;whiteSpace=wrap;html=1;aspect=fixed;" parent="1" vertex="1">
          <mxGeometry x="250" y="280" width="30" height="30" as="geometry" />
        </mxCell>
        <mxCell id="gUrk4oitRmZIMs54-eBy-14" value="" style="ellipse;whiteSpace=wrap;html=1;aspect=fixed;" parent="1" vertex="1">
          <mxGeometry x="240" y="150" width="30" height="30" as="geometry" />
        </mxCell>
        <mxCell id="gUrk4oitRmZIMs54-eBy-15" value="" style="ellipse;whiteSpace=wrap;html=1;aspect=fixed;" parent="1" vertex="1">
          <mxGeometry x="315" y="120" width="30" height="30" as="geometry" />
        </mxCell>
        <mxCell id="gUrk4oitRmZIMs54-eBy-16" value="" style="ellipse;whiteSpace=wrap;html=1;aspect=fixed;" parent="1" vertex="1">
          <mxGeometry x="395" y="120" width="30" height="30" as="geometry" />
        </mxCell>
        <mxCell id="gUrk4oitRmZIMs54-eBy-17" value="" style="ellipse;whiteSpace=wrap;html=1;aspect=fixed;" parent="1" vertex="1">
          <mxGeometry x="345" y="440" width="30" height="30" as="geometry" />
        </mxCell>
        <mxCell id="gUrk4oitRmZIMs54-eBy-18" value="" style="endArrow=classic;html=1;rounded=0;exitX=0.049;exitY=0.733;exitDx=0;exitDy=0;exitPerimeter=0;" parent="1" source="gUrk4oitRmZIMs54-eBy-2" edge="1">
          <mxGeometry width="50" height="50" relative="1" as="geometry">
            <mxPoint x="120" y="440" as="sourcePoint" />
            <mxPoint x="170" y="390" as="targetPoint" />
          </mxGeometry>
        </mxCell>
        <mxCell id="gUrk4oitRmZIMs54-eBy-19" value="LEVEL 2" style="text;html=1;align=center;verticalAlign=middle;whiteSpace=wrap;rounded=0;fontSize=16;" parent="1" vertex="1">
          <mxGeometry x="60" y="410" width="110" height="30" as="geometry" />
        </mxCell>
        <mxCell id="gUrk4oitRmZIMs54-eBy-20" value="" style="endArrow=classic;html=1;rounded=0;" parent="1" source="gUrk4oitRmZIMs54-eBy-3" edge="1">
          <mxGeometry width="50" height="50" relative="1" as="geometry">
            <mxPoint x="150" y="150" as="sourcePoint" />
            <mxPoint x="120" y="160" as="targetPoint" />
          </mxGeometry>
        </mxCell>
        <mxCell id="gUrk4oitRmZIMs54-eBy-21" value="LEVEL 3" style="text;html=1;align=center;verticalAlign=middle;whiteSpace=wrap;rounded=0;fontSize=16;" parent="1" vertex="1">
          <mxGeometry x="50" y="120" width="110" height="30" as="geometry" />
        </mxCell>
        <mxCell id="gUrk4oitRmZIMs54-eBy-22" value="" style="ellipse;whiteSpace=wrap;html=1;aspect=fixed;" parent="1" vertex="1">
          <mxGeometry x="375" y="250" width="30" height="30" as="geometry" />
        </mxCell>
        <mxCell id="gUrk4oitRmZIMs54-eBy-23" value="" style="endArrow=classic;startArrow=classic;html=1;rounded=0;" parent="1" source="gUrk4oitRmZIMs54-eBy-22" target="gUrk4oitRmZIMs54-eBy-7" edge="1">
          <mxGeometry width="50" height="50" relative="1" as="geometry">
            <mxPoint x="50" y="410" as="sourcePoint" />
            <mxPoint x="100" y="360" as="targetPoint" />
          </mxGeometry>
        </mxCell>
        <mxCell id="gUrk4oitRmZIMs54-eBy-26" value="" style="endArrow=classic;startArrow=classic;html=1;rounded=0;" parent="1" source="gUrk4oitRmZIMs54-eBy-7" target="gUrk4oitRmZIMs54-eBy-8" edge="1">
          <mxGeometry width="50" height="50" relative="1" as="geometry">
            <mxPoint x="400" y="540" as="sourcePoint" />
            <mxPoint x="450" y="490" as="targetPoint" />
          </mxGeometry>
        </mxCell>
        <mxCell id="gUrk4oitRmZIMs54-eBy-27" value="" style="endArrow=classic;startArrow=classic;html=1;rounded=0;exitX=0;exitY=0.5;exitDx=0;exitDy=0;" parent="1" source="gUrk4oitRmZIMs54-eBy-7" target="gUrk4oitRmZIMs54-eBy-10" edge="1">
          <mxGeometry width="50" height="50" relative="1" as="geometry">
            <mxPoint x="330" y="600" as="sourcePoint" />
            <mxPoint x="380" y="550" as="targetPoint" />
          </mxGeometry>
        </mxCell>
        <mxCell id="gUrk4oitRmZIMs54-eBy-28" value="" style="endArrow=classic;startArrow=classic;html=1;rounded=0;exitX=1;exitY=0.5;exitDx=0;exitDy=0;entryX=0;entryY=1;entryDx=0;entryDy=0;" parent="1" source="gUrk4oitRmZIMs54-eBy-10" target="gUrk4oitRmZIMs54-eBy-11" edge="1">
          <mxGeometry width="50" height="50" relative="1" as="geometry">
            <mxPoint x="370" y="630" as="sourcePoint" />
            <mxPoint x="420" y="580" as="targetPoint" />
          </mxGeometry>
        </mxCell>
        <mxCell id="gUrk4oitRmZIMs54-eBy-29" value="" style="endArrow=classic;startArrow=classic;html=1;rounded=0;entryX=0;entryY=0;entryDx=0;entryDy=0;" parent="1" source="gUrk4oitRmZIMs54-eBy-15" target="gUrk4oitRmZIMs54-eBy-11" edge="1">
          <mxGeometry width="50" height="50" relative="1" as="geometry">
            <mxPoint x="380" y="640" as="sourcePoint" />
            <mxPoint x="430" y="590" as="targetPoint" />
          </mxGeometry>
        </mxCell>
        <mxCell id="gUrk4oitRmZIMs54-eBy-30" value="A" style="text;html=1;align=center;verticalAlign=middle;whiteSpace=wrap;rounded=0;" parent="1" vertex="1">
          <mxGeometry x="305" y="250" width="60" height="30" as="geometry" />
        </mxCell>
        <mxCell id="gUrk4oitRmZIMs54-eBy-32" value="B" style="text;html=1;align=center;verticalAlign=middle;whiteSpace=wrap;rounded=0;" parent="1" vertex="1">
          <mxGeometry x="265" y="200" width="60" height="30" as="geometry" />
        </mxCell>
        <mxCell id="gUrk4oitRmZIMs54-eBy-33" value="C" style="text;html=1;align=center;verticalAlign=middle;whiteSpace=wrap;rounded=0;" parent="1" vertex="1">
          <mxGeometry x="330" y="180" width="60" height="30" as="geometry" />
        </mxCell>
        <mxCell id="gUrk4oitRmZIMs54-eBy-45" value="" style="endArrow=classic;html=1;rounded=0;" parent="1" source="BoXuv4zLcTpTWYmeshlf-1" edge="1">
          <mxGeometry width="50" height="50" relative="1" as="geometry">
            <mxPoint x="620" y="330" as="sourcePoint" />
            <mxPoint x="670" y="280" as="targetPoint" />
          </mxGeometry>
        </mxCell>
        <mxCell id="gUrk4oitRmZIMs54-eBy-46" value="technically, free space increases with each level,bigger circle" style="text;html=1;align=center;verticalAlign=middle;whiteSpace=wrap;rounded=0;fontSize=16;" parent="1" vertex="1">
          <mxGeometry x="683" y="240" width="147" height="30" as="geometry" />
        </mxCell>
      </root>
    </mxGraphModel>
  </diagram>
</mxfile>
